<svg width="76" height="32" viewBox="0 0 76 32" fill="none" xmlns="http://www.w3.org/2000/svg">
<g filter="url(#filter0_d_394_180)">
<path d="M21.0256 12.76C21.0256 12.92 21.0256 13.112 21.0256 13.304C21.0256 14.392 21.0256 15.48 21.0256 16.568C21.0576 18.168 21.0896 19.8 21.1216 21.432C21.1216 21.72 21.0896 22.04 20.9936 22.328C20.8336 22.776 20.5456 23.064 20.0656 23.128C19.8416 23.192 19.6176 23.192 19.3936 23.192C19.1696 23.16 18.9776 23.192 18.7856 23.192C18.4976 23.224 18.2096 23.256 17.9216 23.256C17.5376 23.256 17.2176 23.128 17.0256 22.712C16.8336 22.264 16.6736 21.816 16.6736 21.304C16.6736 19.224 16.6416 17.176 16.6096 15.128C16.6096 14.136 16.6096 13.144 16.6096 12.152C16.6096 11.896 16.5456 11.8 16.3536 11.736C16.2256 11.704 16.1296 11.704 16.0656 11.832C15.9376 12.056 15.8096 12.312 15.6816 12.568C15.3296 13.304 14.9776 14.04 14.5936 14.776C14.4016 15.224 14.2096 15.672 13.9856 16.088C13.8256 16.44 13.6336 16.792 13.4096 17.08C13.2176 17.336 12.7056 17.336 12.5136 17.08C12.2896 16.792 12.1296 16.472 11.9696 16.152C11.6816 15.576 11.3936 15 11.1056 14.392C10.8176 13.784 10.5296 13.144 10.2416 12.536C10.1136 12.28 10.0176 12.024 9.79363 11.832C9.69763 11.768 9.60163 11.704 9.50563 11.736C9.37763 11.8 9.34563 11.896 9.34563 11.992C9.31363 12.184 9.31363 12.376 9.31363 12.6C9.31363 15.288 9.28163 17.976 9.28163 20.664C9.24963 21.048 9.24963 21.4 9.24963 21.752C9.21763 22.072 9.15363 22.36 9.02563 22.648C8.86563 23.064 8.44963 23.288 8.03363 23.256C7.71363 23.256 7.36163 23.192 7.04163 23.192C6.88163 23.16 6.68963 23.16 6.52963 23.192C6.17763 23.224 5.82563 23.128 5.47363 23C5.15363 22.904 4.89763 22.648 4.70563 22.392C4.57763 22.232 4.54563 21.976 4.54563 21.752C4.54563 20.312 4.54563 18.904 4.60963 17.464C4.70563 15.736 4.73763 13.976 4.67363 12.248C4.64163 10.648 4.64163 9.016 4.64163 7.416C4.67363 6.744 4.73763 6.072 4.73763 5.4C4.76963 4.408 4.73763 3.416 4.76963 2.456C4.76963 1.976 4.83363 1.496 5.02563 1.08C5.21763 0.664 5.50563 0.439999 5.95363 0.407999C6.59363 0.375999 7.23363 0.311998 7.87363 0.279999C8.00163 0.279999 8.09763 0.279999 8.22563 0.279999C8.54563 0.216 8.83363 0.375999 9.12163 0.471998C9.28163 0.567999 9.37763 0.664 9.44163 0.823999C9.66563 1.4 9.92163 1.976 10.1776 2.552C10.5296 3.48 10.8496 4.408 11.3296 5.272C11.7136 6.04 12.0976 6.776 12.4816 7.544C12.5136 7.576 12.5456 7.64 12.5456 7.704C12.7696 8.056 13.1216 8.056 13.3456 7.704C13.3456 7.704 13.3776 7.704 13.3776 7.672C13.9856 6.392 14.7216 5.144 15.2656 3.8C15.5536 3.064 15.8416 2.328 16.1296 1.624C16.1936 1.4 16.2896 1.208 16.4176 1.016C16.6096 0.664 16.8976 0.439999 17.3456 0.375999C18.0816 0.247999 18.8176 0.279999 19.5536 0.407999C20.0656 0.504 20.5456 0.759998 20.7376 1.304C20.8336 1.528 20.8976 1.752 20.9296 2.008C21.1216 3.384 21.1216 4.76 21.1216 6.136C21.0896 7.288 21.0896 8.44 21.0896 9.592C21.0896 10.168 21.0576 10.744 21.0576 11.32C21.0576 11.8 21.0256 12.28 21.0256 12.76ZM24.2064 12.504C24.2704 10.776 24.3024 9.304 24.3344 7.8C24.3664 6.456 24.3664 5.08 24.3664 3.736C24.3984 3.512 24.3984 3.32 24.4304 3.128C24.5264 2.648 24.5904 2.168 24.6864 1.688C24.8784 1.048 25.2944 0.695999 25.9344 0.631998C26.5104 0.599998 27.0864 0.535999 27.6624 0.504C27.8864 0.504 28.1104 0.504 28.3024 0.504C28.6544 0.504 29.0064 0.504 29.3584 0.504C30.2224 0.471998 31.1184 0.471998 32.0144 0.471998C32.3664 0.439999 32.7184 0.471998 33.0704 0.471998C33.6464 0.504 34.2544 0.504 34.8304 0.535999C34.9584 0.535999 35.0864 0.535999 35.1824 0.567999C35.3744 0.567999 35.5344 0.599998 35.6944 0.599998C36.2384 0.599998 36.6544 0.855999 36.8464 1.336C36.9104 1.56 36.9424 1.816 36.9424 2.04C36.9744 2.68 36.9744 3.288 37.0064 3.896C37.0064 4.056 36.9744 4.184 37.0064 4.312C37.0384 4.536 36.9424 4.728 36.8464 4.92C36.7184 5.176 36.4624 5.208 36.2384 5.24C35.7264 5.272 35.2464 5.304 34.7344 5.304C33.5824 5.336 32.3984 5.368 31.2464 5.4C30.8304 5.4 30.4464 5.432 30.0304 5.496C29.7744 5.528 29.5184 5.656 29.4224 5.944C29.1664 6.552 29.1024 7.224 29.2304 7.864C29.3264 8.216 29.5184 8.408 29.8384 8.536C30.1264 8.632 30.4464 8.664 30.7344 8.664C31.6624 8.664 32.5904 8.664 33.4864 8.664C33.8064 8.664 34.0944 8.728 34.4144 8.856C34.5424 8.92 34.6704 9.016 34.7024 9.176C34.9584 9.88 35.0544 10.616 34.8304 11.352C34.7344 11.608 34.5744 11.864 34.4144 12.088C34.2864 12.28 34.0944 12.344 33.8704 12.344C33.2624 12.408 32.6544 12.504 32.0464 12.568C31.4064 12.6 30.7664 12.696 30.1584 12.696C29.7744 12.696 29.3584 13.048 29.2944 13.432C29.2624 13.72 29.2304 14.008 29.2304 14.328C29.1984 15.256 29.1984 16.216 29.1984 17.176C29.1984 17.432 29.1984 17.688 29.2304 17.944C29.2624 18.2 29.3904 18.424 29.5184 18.616C29.6464 18.776 29.8704 18.808 30.0624 18.808C30.6704 18.808 31.3104 18.808 31.9504 18.776C32.5584 18.776 33.1984 18.744 33.8064 18.712C34.2544 18.712 34.6704 18.68 35.0864 18.68C35.4704 18.68 35.8544 18.712 36.2064 18.872C36.3344 18.936 36.4624 19 36.5584 19.064C36.9744 19.384 37.1984 19.8 37.1984 20.344C37.1984 20.696 37.2304 21.048 37.2624 21.368C37.2624 21.656 37.2624 21.944 37.2624 22.232C37.2304 22.552 37.0064 22.776 36.7824 22.968C36.7184 23.032 36.5584 23.064 36.4624 23.064C35.4064 23.096 34.3504 23.096 33.2944 23.128C32.7504 23.128 32.2064 23.192 31.6624 23.192C30.7984 23.224 29.9664 23.224 29.1024 23.256C28.4944 23.288 27.8864 23.352 27.2784 23.384C26.7024 23.416 26.0944 23.416 25.5184 23.288C25.1984 23.256 24.9104 23.128 24.6544 22.968C24.5584 22.872 24.4624 22.808 24.4304 22.712C24.2064 22.328 24.1104 21.976 24.0784 21.56C24.0144 20.728 24.0464 19.896 24.0464 19.064C24.1104 17.4 24.1744 15.736 24.2064 14.072C24.2384 13.464 24.2064 12.856 24.2064 12.504ZM40.0769 12.056C40.0769 9.72 40.0769 7.288 40.0769 4.888C40.0769 4.248 40.0769 3.64 40.0769 3C40.0769 2.68 40.1089 2.328 40.1409 2.008C40.1729 1.624 40.3649 1.304 40.5249 0.983999C40.6529 0.727999 40.9409 0.631998 41.1969 0.599998C41.4849 0.567999 41.7409 0.535999 42.0289 0.535999C42.6049 0.567999 43.1489 0.664 43.6929 0.887999C43.9169 0.983999 44.0769 1.112 44.1729 1.336C44.3009 1.592 44.4289 1.88 44.5569 2.168C44.9089 2.904 45.2289 3.704 45.6129 4.44C46.2209 5.688 46.8289 6.904 47.4689 8.152C47.8849 8.952 48.3329 9.752 48.7489 10.52C49.0689 11.096 49.3249 11.64 49.6129 12.184C49.6449 12.216 49.6769 12.248 49.6769 12.28C49.8049 12.408 49.9009 12.504 50.0609 12.472C50.2529 12.44 50.3809 12.344 50.4129 12.152C50.4449 12.024 50.5089 11.896 50.5089 11.736C50.4769 9.816 50.4769 7.896 50.4449 5.976C50.4129 5.304 50.3489 4.632 50.3169 3.96C50.3169 3.544 50.3169 3.16 50.3489 2.744C50.3489 2.52 50.3489 2.296 50.3489 2.072C50.3489 1.656 50.5089 1.24 50.7009 0.887999C50.8609 0.631998 51.1169 0.439999 51.4369 0.471998C51.9809 0.504 52.5249 0.504 53.0369 0.535999C53.6129 0.599998 54.2529 1.08 54.2529 1.816C54.2849 2.68 54.3489 3.512 54.3809 4.376C54.4449 5.208 54.4769 6.04 54.5089 6.872C54.5089 10.168 54.5089 13.464 54.5409 16.792C54.5409 18.072 54.6049 19.384 54.6689 20.664C54.6689 21.112 54.5409 21.56 54.4769 22.008C54.4449 22.104 54.3809 22.232 54.2849 22.328C54.0289 22.712 53.6769 22.968 53.2289 23.032C52.8449 23.096 52.4609 23.128 52.1089 23C51.6929 22.904 51.3729 22.68 51.1169 22.36C50.7969 21.976 50.4769 21.56 50.1889 21.176C49.8369 20.728 49.4849 20.248 49.1969 19.8C48.9729 19.48 48.8129 19.096 48.5889 18.776C48.1729 18.104 47.6929 17.464 47.2769 16.792C46.7009 15.896 46.1889 14.968 45.6449 14.072C45.3889 13.592 45.1009 13.112 44.8129 12.664C44.7169 12.504 44.6209 12.408 44.4289 12.408C44.2689 12.408 44.1729 12.44 44.1409 12.6C44.1409 12.696 44.1409 12.76 44.1409 12.856C44.1089 14.104 44.1089 15.384 44.0769 16.632C44.0769 17.848 44.0449 19.032 44.0449 20.248C44.0449 20.728 44.0769 21.208 44.0769 21.688C44.0769 22.072 43.9809 22.456 43.7569 22.808C43.7249 22.904 43.6289 22.968 43.5329 23.032C43.2449 23.128 42.9889 23.192 42.7009 23.16C42.1889 23.128 41.6769 23.128 41.1329 23.128C40.8129 23.128 40.5889 22.936 40.4609 22.68C40.2369 22.328 40.1409 21.912 40.1409 21.464C40.1409 20.664 40.1729 19.832 40.1729 19.032C40.1729 17.304 40.1729 15.608 40.1409 13.88C40.1409 13.304 40.1089 12.696 40.0769 12.056ZM61.3849 8.728C61.2569 10.712 61.2569 12.76 61.3209 14.808C61.3529 15.768 61.4809 16.696 61.7689 17.592C61.9289 18.072 62.1209 18.552 62.5369 18.872C62.7929 19.064 63.0489 19.256 63.3689 19.32C63.5289 19.32 63.6569 19.384 63.8169 19.416C64.4569 19.64 65.3209 19.48 65.8329 19.032C66.1529 18.776 66.3449 18.424 66.4729 18.072C66.6649 17.464 66.8249 16.888 66.9209 16.248C67.0169 15.544 67.1129 14.84 67.2089 14.104C67.2409 13.912 67.2409 13.72 67.2729 13.528C67.3049 12.664 67.3689 11.8 67.4329 10.936C67.4649 10.552 67.4649 10.168 67.4649 9.816C67.4329 8.696 67.4009 7.576 67.4009 6.456C67.4329 5.176 67.4649 3.928 67.4969 2.648C67.4969 2.168 67.6569 1.72 67.9449 1.336C68.1049 1.112 68.2969 0.983999 68.5529 0.887999C68.9369 0.792 69.2889 0.823999 69.6729 0.855999C69.9289 0.855999 70.1849 0.952 70.4089 1.048C70.8569 1.24 71.0489 1.624 71.1449 2.04C71.2089 2.264 71.2089 2.488 71.2089 2.744C71.2089 5.432 71.1769 8.12 71.1449 10.808C71.1449 12.984 71.0169 15.16 70.6009 17.304C70.4729 17.976 70.2809 18.68 70.0889 19.32C69.8649 20.12 69.5129 20.824 69.0329 21.496C68.7129 21.976 68.2329 22.36 67.7209 22.68C66.9849 23.096 66.1849 23.416 65.3529 23.544C64.8409 23.608 64.2969 23.576 63.7849 23.576C63.5609 23.576 63.3689 23.544 63.1769 23.512C62.1849 23.416 61.3209 22.968 60.5529 22.328C59.6569 21.592 59.1129 20.632 58.6329 19.608C58.0889 18.456 57.8649 17.24 57.7369 15.992C57.7049 15.64 57.6409 15.256 57.6409 14.904C57.6089 14.104 57.5769 13.304 57.5769 12.536C57.5769 10.936 57.6089 9.368 57.6409 7.768C57.6409 6.648 57.6729 5.528 57.7049 4.376C57.7049 3.864 57.7049 3.352 57.7369 2.84C57.7689 2.552 57.8009 2.264 57.8969 1.976C57.9609 1.784 58.1209 1.624 58.2489 1.496C58.3769 1.336 58.5049 1.24 58.6649 1.144C58.7609 1.08 58.8889 1.016 59.0169 1.016C59.5929 0.952 60.1689 0.887999 60.7449 1.016C61.2569 1.112 61.4809 1.336 61.5449 1.848C61.5769 2.04 61.6089 2.232 61.6089 2.424C61.5769 2.936 61.5449 3.48 61.5769 3.992C61.5769 5.56 61.4809 7.128 61.3849 8.728Z" fill="#84E4A8"/>
</g>
<defs>
<filter id="filter0_d_394_180" x="0.545654" y="0.216003" width="74.6632" height="31.392" filterUnits="userSpaceOnUse" color-interpolation-filters="sRGB">
<feFlood flood-opacity="0" result="BackgroundImageFix"/>
<feColorMatrix in="SourceAlpha" type="matrix" values="0 0 0 0 0 0 0 0 0 0 0 0 0 0 0 0 0 0 127 0" result="hardAlpha"/>
<feOffset dy="4"/>
<feGaussianBlur stdDeviation="2"/>
<feComposite in2="hardAlpha" operator="out"/>
<feColorMatrix type="matrix" values="0 0 0 0 0 0 0 0 0 0 0 0 0 0 0 0 0 0 0.25 0"/>
<feBlend mode="normal" in2="BackgroundImageFix" result="effect1_dropShadow_394_180"/>
<feBlend mode="normal" in="SourceGraphic" in2="effect1_dropShadow_394_180" result="shape"/>
</filter>
</defs>
</svg>
